<svg id="Layer_1" data-name="Layer 1" xmlns="http://www.w3.org/2000/svg" viewBox="0 0 100 100"><defs><style>.cls-1{fill:#fdc379;}.cls-2{fill:#f7a246;}.cls-3{fill:#00a639;}.cls-4{fill:#038e2e;}.cls-5{fill:#ef1a27;}.cls-6{fill:#fb751b;}.cls-7{fill:#d1651c;}.cls-8{fill:#da5e08;}.cls-9{fill:#dd1b2e;}.cls-10{fill:#34a0a5;}.cls-11{fill:#d8d6d6;}.cls-12{fill:#d0dba7;}</style></defs><title>icon</title><path class="cls-1" d="M76.82913,41.24606V99.21418h-32.984a2.45731,2.45731,0,0,0,2.4531-2.45311V48.88662a2.47077,2.47077,0,0,0-2.4531-2.46875H23.98609V41.24606l5.40612-5.40612,5.15617,5.15617,5.15627-5.15617L44.78271,40.918l2.78117-2.78126,1.9531-1.93746.35934-.35934,5.40622,5.40612h.57811l5.42186-5.40612,4.8593,4.85929.20313.21877L71.423,35.83994Z"/><path class="cls-1" d="M73.514,9.85587l-.03128.17185c-.01555.0781-.03119.14066-.04683.21877a.80539.80539,0,0,0-.03128.17185.05746.05746,0,0,0-.01564.04692L71.06087,21.215a10.49545,10.49545,0,0,0-1.39063,3.40629c-.43744,1.98429-.85935,3.96867-1.25,5.95305a7.15366,7.15366,0,0,0-1.32807-3.65624,7.78245,7.78245,0,0,0-1.85935-1.78126,6.873,6.873,0,0,0-2.51558-1.06247A6.72392,6.72392,0,0,0,61.936,23.965a10.23773,10.23773,0,0,0,1.62495-3.7499,10.13676,10.13676,0,0,0-5.79684,2.31245,9.60659,9.60659,0,0,0-2.67178,3.87492c-.10939.04692-.23441.0782-.35944.14067a.41432.41432,0,0,0,.0782.09374,2.9916,2.9916,0,0,0-.32815-.23441c.79688-1.23433,1.25-2.578.35934-4-.96873-1.59366-2.45311-1.23432-3.99995-.82806,1.56248-2.43747,4.65626-4.28119,2.84373-7.68739A3.12762,3.12762,0,0,0,51.18615,12.137c.06247-.14057.12493-.28124.20313-.42181.21868-.45318.46873-.89062.71868-1.32816.25005-.42181.5-.84371.7656-1.25.03129-.06247.06257-.09375.09375-.15621.26569-.39062.53129-.78124.79688-1.14068A18.89949,18.89949,0,0,1,59.82663,2.356,11.33974,11.33974,0,0,1,66.52973.82468a12.20567,12.20567,0,0,1,1.28115.21877A7.28178,7.28178,0,0,1,70.639,2.38716,7.69665,7.69665,0,0,1,73.514,9.85587Z"/><path class="cls-2" d="M73.514,9.85587l-.03128.17185c-.01555.0781-.03119.14066-.04683.21877a.80539.80539,0,0,0-.03128.17185.05746.05746,0,0,0-.01564.04692L71.06087,21.215a10.49545,10.49545,0,0,0-1.39063,3.40629c-.43744,1.98429-.85935,3.96867-1.25,5.95305a7.15366,7.15366,0,0,0-1.32807-3.65624,7.78245,7.78245,0,0,0-1.85935-1.78126c.125-.64057.26559-1.28124.40626-1.92182a10.49467,10.49467,0,0,1,1.39053-3.4062L69.35782,9.059a.05769.05769,0,0,1,.01554-.04692.80667.80667,0,0,1,.03129-.17185c.01564-.0781.03128-.14057.04692-.21877l.03118-.17185A7.69664,7.69664,0,0,0,66.60784.981l-.07811-.1563a12.20567,12.20567,0,0,1,1.28115.21877A7.28178,7.28178,0,0,1,70.639,2.38716,7.69665,7.69665,0,0,1,73.514,9.85587Z"/><path class="cls-2" d="M58.63548,13.33514c.48607-.8124.12427-1.58861-1.08008-2.35343a19.09321,19.09321,0,0,1-3.7904-3.147q-.4101.55086-.79111,1.14692a.98277.98277,0,0,0-.09914.15949c-.26908.407-.51344.81933-.76049,1.2441a24.0756,24.0756,0,0,0,3.88745,3.11628C57.191,14.276,58.11136,14.20382,58.63548,13.33514Z"/><path class="cls-2" d="M59.17791,13.65925l-.00186.00275a1.98553,1.98553,0,0,1-1.26.95777,2.96851,2.96851,0,0,1-2.2581-.588,24.787,24.787,0,0,1-3.98867-3.19854.63238.63238,0,0,1-.1005-.76578c.25332-.43548.50269-.85857.72667-1.17609a1.39218,1.39218,0,0,1,.14622-.2498q.39282-.61637.81695-1.18494a.63192.63192,0,0,1,.97016-.05057A18.60875,18.60875,0,0,0,57.894,10.44874c1.48454.943,1.68969,1.88417,1.54025,2.57438A2.12083,2.12083,0,0,1,59.17791,13.65925Zm-.54465-.31166.00261-.01206Zm-5.13269-4.018-.0992.1609c-.17226.2593-.33246.52121-.49091.78666a23.66766,23.66766,0,0,0,3.43508,2.695,1.88635,1.88635,0,0,0,1.28928.41671.74389.74389,0,0,0,.45927-.37827c.13513-.2219.40048-.68381-.87877-1.49656A20.07638,20.07638,0,0,1,53.83684,8.82C53.72388,8.98608,53.61268,9.15574,53.50057,9.32962Z"/><path class="cls-3" d="M48.04555,22.65259a.53076.53076,0,0,1-.01564.15621c-.09374.70314-.15621,1.42191-.18749,2.14059-.14066.03128-.29687.07811-.43754.125a.95719.95719,0,0,0-.18749.0781,7.37734,7.37734,0,0,0-3.76554,3.3281C42.155,30.84,42.57687,33.4493,43.2018,35.465c.23441.78124.51565,1.48428.73442,2.03121.31251.82806.20313.3437,1.45309,2.81244l-.60939.60939-5.07806-5.07806-5.15617,5.15617A25.68922,25.68922,0,0,0,31.7176,37.3555a25.05823,25.05823,0,0,0-2.07813-1.81244,21.14906,21.14906,0,0,0-2.35936-1.54684.64042.64042,0,0,0-.17185-.10938c-1.25-.75006-2.6406-1.4531-3.85928-2.2969-1.39063-.96873-2.57813-2.15623-2.20315-4.06241.375-1.92183,1.96874-2.15624,3.65624-2.31245-2.4531-1.82817-6.2031-2.51566-5.67181-6.53125.32815-2.31244,2.15623-3.28117,4.53123-3.26553a4.21932,4.21932,0,0,1-1.67186-3.09369,3.25753,3.25753,0,0,1,.59375-2.15623,3.80875,3.80875,0,0,1,3.99995-1.26561,3.53529,3.53529,0,0,1,2.578-2.51566H29.077a3.5742,3.5742,0,0,1,3.53123.73441A3.79106,3.79106,0,0,1,36.655,6.05905a3.07174,3.07174,0,0,1,1.6094,1.40617,4.12018,4.12018,0,0,1,.29688,3.57815c1.99992-1.26561,4.06241-1.4531,5.57807.32806,2.60931,3.10932-.18749,5.68745-1.26561,8.56246,1.48438-.7657,2.95311-1.43755,4.29682-.01564A3.04709,3.04709,0,0,1,48.04555,22.65259Z"/><path class="cls-4" d="M54.483,26.40249a8.28936,8.28936,0,0,0-6.64055-1.4531c.03128-.71868.09375-1.43745.18749-2.14059a.53076.53076,0,0,0,.01564-.15621,3.04709,3.04709,0,0,0-.875-2.73434c-1.34371-1.42191-2.81244-.75006-4.29682.01564,1.07812-2.875,3.87492-5.45314,1.26561-8.56246-1.51566-1.78116-3.57815-1.59367-5.57807-.32806a4.12018,4.12018,0,0,0-.29688-3.57815,3.69531,3.69531,0,0,1,5.54679.25A3.58688,3.58688,0,0,1,47.78,7.4965a3.675,3.675,0,0,1,.79678,5.0156,5.26109,5.26109,0,0,1,2.60941-.37507,3.12762,3.12762,0,0,1,2.49994,1.75006c1.81253,3.4062-1.28125,5.24992-2.84373,7.68739,1.54684-.40626,3.03122-.7656,3.99995.82806C55.73293,23.82445,55.27985,25.16816,54.483,26.40249Z"/><path class="cls-3" d="M34.54569,40.99611l-5.15617-5.15617-3.68743,3.68743a1.20871,1.20871,0,0,0-.14067-.06246,18.29449,18.29449,0,0,0-2.53121-.875.56005.56005,0,0,0-.17185-.06256c-1.32817-.39062-2.76562-.71868-4.07806-1.203-1.5-.56257-2.89064-1.375-2.96875-3.23435C15.70217,32.24625,17.124,31.668,18.624,31.13685c-2.68742-1.10939-6.28121-.875-6.73429-4.70308-.25-2.18751,1.21878-3.49994,3.42184-4.04687a3.65154,3.65154,0,0,1-2.2187-4.56242,3.57082,3.57082,0,0,1,3.37492-2.09367A3.341,3.341,0,0,1,18.249,12.809a3.41328,3.41328,0,0,1,3.42184-.14067,2.55073,2.55073,0,0,1,.21877-.3437,4.21932,4.21932,0,0,0,1.67186,3.09369c-2.375-.01564-4.20308.95309-4.53123,3.26553-.53129,4.01559,3.21871,4.70308,5.67181,6.53125-1.6875.15621-3.28126.39062-3.65624,2.31245-.375,1.90618.81252,3.09368,2.20315,4.06241,1.21868.8438,2.60932,1.54684,3.85928,2.2969a.64042.64042,0,0,1,.17185.10938,21.14906,21.14906,0,0,1,2.35936,1.54684A25.05823,25.05823,0,0,1,31.7176,37.3555,25.68922,25.68922,0,0,1,34.54569,40.99611Z"/><path class="cls-3" d="M63.561,20.21512A10.23773,10.23773,0,0,1,61.936,23.965a8.88808,8.88808,0,0,1-1.48437,1.68751c-.09375.09374-.21877.17185-.31252.25a8.89568,8.89568,0,0,0-4.01559.21877,7.33158,7.33158,0,0,0-1.03119.28124,9.60659,9.60659,0,0,1,2.67178-3.87492A10.13676,10.13676,0,0,1,63.561,20.21512Z"/><path class="cls-3" d="M66.12347,29.57437a10.037,10.037,0,0,1-6.23428.48437,9.757,9.757,0,0,1-4.01559-2.26562,8.65928,8.65928,0,0,1-.92191-.98437c0-.01564.01564-.03118.01564-.04682-.04692-.03128-.09374-.0782-.15621-.125a.41432.41432,0,0,1-.0782-.09374c.125-.06247.25005-.09375.35944-.14067a7.33158,7.33158,0,0,1,1.03119-.28124,8.89568,8.89568,0,0,1,4.01559-.21877,5.27645,5.27645,0,0,1,.81252.17195A10.02717,10.02717,0,0,1,66.12347,29.57437Z"/><path d="M54.80931,27.42243a.78169.78169,0,0,1-.77819-.72936L53.56879,19.697a.78143.78143,0,0,1,1.55942-.10376l.46234,6.99607a.78183.78183,0,0,1-.72783.8316C54.8444,27.42243,54.82762,27.42243,54.80931,27.42243Z"/><path class="cls-3" d="M88.26546,15.93624c-.70871.51978-1.513.95586-2.25212,1.42367a12.682,12.682,0,0,0-2.84091,2.32738,6.648,6.648,0,0,0-1.28192-.996,7.97267,7.97267,0,0,0-3.586-1.1722,7.41813,7.41813,0,0,0-1.97657.1443,12.17539,12.17539,0,0,0-1.23917-3.07054.37565.37565,0,0,0-.04717-.10045c-.41572-.76964-.90386-1.5435-1.26753-2.34355a2.317,2.317,0,0,1,.1154-2.74593c.771-.87069,1.65633-.49246,2.5583-.06578-.69219-1.679-2.38938-3.1655-.89749-5.05223.86973-1.08,2.09952-1.00822,3.30509-.28191a2.30556,2.30556,0,0,1,1.04879-3.00133,2.25094,2.25094,0,0,1,2.42045.57388,2.1039,2.1039,0,0,1,2.08369-.4983,2.12691,2.12691,0,0,1,1.58727,1.45773,2.22735,2.22735,0,0,1,2.37795.68021,2.12216,2.12216,0,0,1,.173,2.20442,2.418,2.418,0,0,1-.72682.92626c1.40678-.04355,2.52809.49919,2.7445,1.863.37795,2.37542-1.81576,2.845-3.25473,3.967,1.00916.0728,1.95248.1725,2.19888,1.3091A2.29571,2.29571,0,0,1,88.26546,15.93624Z"/><path class="cls-4" d="M88.26546,15.93624c-.70871.51978-1.513.95586-2.25212,1.42367a12.682,12.682,0,0,0-2.84091,2.32738,7.76171,7.76171,0,0,0-3.56081-1.957c.79163-1.6787,1.582-2.15024,2.1787-2.2525a4.20728,4.20728,0,0,0,1.42659-.28814,1.3272,1.3272,0,0,0,.80827-1.12542,7.10918,7.10918,0,0,0-.207-.95007,2.1734,2.1734,0,0,1,.22942-1.15909c.5836-1.3898,1.979-1.3335,2.23175-2.41316.09161-.43169-.09784-.57758-.18745-.96676a1.90535,1.90535,0,0,1-.03722-.59018c.03352-.50644.72428-1.17664,1.765-1.63911,1.40678-.04355,2.52809.49919,2.7445,1.863.37795,2.37542-1.81576,2.845-3.25473,3.967,1.00916.0728,1.95248.1725,2.19888,1.3091A2.29571,2.29571,0,0,1,88.26546,15.93624Z"/><path class="cls-5" d="M68.42027,30.57438c-.5,2.46866-.96873,4.953-1.375,7.43734-.15621.82816-.28123,1.65632-.40626,2.5a.95507.95507,0,0,1-.10929.21877l-.18758.18749-.203-.21877-4.85939-4.85929L55.858,41.24606h-.57811L50.96738,36.9337l-1.09375-1.09376-.35934.35934-1.9531,1.93746-2.17188,2.17187c-1.25-2.46874-1.14058-1.98438-1.45309-2.81244-.21877-.54693-.5-1.25-.73442-2.03121-.62493-2.01566-1.04683-4.625.25005-6.98434a7.37734,7.37734,0,0,1,3.76554-3.3281.95719.95719,0,0,1,.18749-.0781c.14067-.04692.29688-.09375.43754-.125a8.28936,8.28936,0,0,1,6.64055,1.4531,2.9916,2.9916,0,0,1,.32815.23441c.06247.04683.10929.09375.15621.125,0,.01564-.01564.03118-.01564.04682a8.65928,8.65928,0,0,0,.92191.98437,9.53971,9.53971,0,0,0,3.54677,2.10941c.1563.06246.31251.10929.46882.15621a10.037,10.037,0,0,0,6.23428-.48437,10.02717,10.02717,0,0,0-5.17181-3.49994,5.27645,5.27645,0,0,0-.81252-.17195c.09375-.0781.21877-.15621.31252-.25A8.88808,8.88808,0,0,0,61.936,23.965a6.72392,6.72392,0,0,1,.78124.10939,7.33969,7.33969,0,0,1,4.37493,2.84373A7.15366,7.15366,0,0,1,68.42027,30.57438Z"/><path class="cls-6" d="M84.95135,29.91807c-1.06247,2.57814-2.14059,5.15627-3.26562,7.703-1.625,1.42191-3.23435,2.84372-4.8593,4.25v-.625l-1.78125-1.78115-3.625-3.625-4.79673,4.79683a.30626.30626,0,0,1,.01554-.125c.125-.8437.25005-1.67186.40626-2.5.40626-2.4843.875-4.96868,1.375-7.43734.39062-1.98438.81253-3.96876,1.25-5.95305A10.49545,10.49545,0,0,1,71.06087,21.215a7.40612,7.40612,0,0,1,.79688-1.04684,8.7935,8.7935,0,0,1,2.26562-1.73433,8.34657,8.34657,0,0,1,2.2187-.7656,6.83692,6.83692,0,0,1,1.9531-.1563c.09374.01564.29687.03128.54683.06256a8.54267,8.54267,0,0,1,3.0625,1.1093,7.03466,7.03466,0,0,1,1.2656,1.01565,8.51756,8.51756,0,0,1,2.51557,4.15616A9.65193,9.65193,0,0,1,84.95135,29.91807Z"/><path class="cls-7" d="M84.95135,29.91807c-1.06247,2.57814-2.14059,5.15627-3.26562,7.703-1.625,1.42191-3.23435,2.84372-4.8593,4.25v-.625l-1.78125-1.78115c1.15632-1,2.31254-2.01566,3.46876-3.03122,1.12494-2.54685,2.20306-5.125,3.26553-7.703a9.65286,9.65286,0,0,0,.73442-6.06244A8.51867,8.51867,0,0,0,79.99831,18.512a7.37689,7.37689,0,0,0-1.15631-.93745,8.54267,8.54267,0,0,1,3.0625,1.1093,7.03466,7.03466,0,0,1,1.2656,1.01565,8.51756,8.51756,0,0,1,2.51557,4.15616A9.65193,9.65193,0,0,1,84.95135,29.91807Z"/><path class="cls-8" d="M77.597,26.06843a.89553.89553,0,0,1-.1917-.07509,8.029,8.029,0,0,0-1.71142-.67111,7.83684,7.83684,0,0,0-1.88623-.26916.87688.87688,0,0,1,.03873-1.75334,9.17036,9.17036,0,0,1,2.29746.32875,9.71622,9.71622,0,0,1,2.08754.8173.87728.87728,0,0,1-.63438,1.62265Z"/><path class="cls-8" d="M76.19541,33.95207a.87714.87714,0,0,1,.24167-1.72528,8.627,8.627,0,0,1,2.29648.3285,9.84714,9.84714,0,0,1,2.08657.817.87665.87665,0,0,1-.82218,1.54858,8.15377,8.15377,0,0,0-1.71434-.67187,7.51078,7.51078,0,0,0-1.88525-.26891A.8836.8836,0,0,1,76.19541,33.95207Z"/><path class="cls-2" d="M90.60753,32.44929v57.6556c-2.07813.70313-4.15616,1.42181-6.23429,2.12495l-7.54681,6.98434V41.87109c1.62495-1.40627,3.23435-2.82808,4.8593-4.25.89062-.78125,1.79689-1.56249,2.68751-2.34373C86.45137,34.32428,88.5294,33.38683,90.60753,32.44929Z"/><path class="cls-2" d="M90.60753,32.444l-6.65976-.09267q-.40533.97257-.82218,1.95273-.71508,1.68131-1.43778,3.32309l2.691-2.35459Q87.49314,33.85832,90.60753,32.444Z"/><path class="cls-9" d="M68.42027,30.57438c-.5,2.46866-.96873,4.953-1.375,7.43734-.15621.82816-.28123,1.65632-.40626,2.5a.95507.95507,0,0,1-.10929.21877l-.18758.18749-.203-.21877-4.85939-4.85929L55.858,41.24606h-.57811L53.2126,39.28884a28.918,28.918,0,0,1,2.51114-2.76225c2.31107-2.23366,3.4666-3.35048,5.27338-3.82947,1.55447-.4121,2.3168-.03009,3.45279-.81612a4.70217,4.70217,0,0,0,1.67356-2.30663,10.19734,10.19734,0,0,0-5.17181-3.49994,5.27645,5.27645,0,0,0-.81252-.17195c.09375-.0781.21877-.15621.31252-.25A8.88808,8.88808,0,0,0,61.936,23.965a6.72392,6.72392,0,0,1,.78124.10939,7.33969,7.33969,0,0,1,4.37493,2.84373A7.15366,7.15366,0,0,1,68.42027,30.57438Z"/><path class="cls-10" d="M46.3,48.89V96.76a2.45392,2.45392,0,0,1-2.45,2.45H11.85a2.44969,2.44969,0,0,1-2.46-2.45V48.89a2.46678,2.46678,0,0,1,2.46-2.47H43.85A2.47119,2.47119,0,0,1,46.3,48.89Z"/><rect class="cls-11" x="37.69549" y="65.10259" width="6.15087" height="6.15052" rx="0.99644" transform="translate(108.95636 27.41961) rotate(90.01065)"/><path d="M42.2885,72.034H39.252a2.33978,2.33978,0,0,1-2.33762-2.33762v-3.038a2.34108,2.34108,0,0,1,2.33915-2.33762H42.29A2.34108,2.34108,0,0,1,44.62765,66.66v3.03646A2.34108,2.34108,0,0,1,42.2885,72.034ZM39.25357,65.8833a.77657.77657,0,0,0-.77667.77514v3.038a.77624.77624,0,0,0,.77514.77514H42.2885a.77657.77657,0,0,0,.77667-.77514V66.66A.77657.77657,0,0,0,42.29,65.8833Z"/><path class="cls-11" d="M42.6098,48.88824l-23.38767-.00135-.00173.00038-6.14523-.00038a1.22578,1.22578,0,0,0-1.22587,1.22534l-.0039,9.85046A1.22587,1.22587,0,0,0,13.07126,61.189H42.6059a1.22592,1.22592,0,0,0,1.22586-1.22541l.00383-9.849A1.22576,1.22576,0,0,0,42.6098,48.88824Z"/><path d="M42.60588,61.971H13.07132a2.00572,2.00572,0,0,1-2.00651-2.00956l.00306-9.84943a2.00928,2.00928,0,0,1,2.008-2.00651l29.53456.00153a2.00928,2.00928,0,0,1,2.00651,2.008l-.00458,9.8479A2.00929,2.00929,0,0,1,42.60588,61.971Zm-29.53-12.303a.44575.44575,0,0,0-.44555.444l-.003,9.851a.4454.4454,0,0,0,.444.44555H42.60588a.44575.44575,0,0,0,.444-.44555l.00457-9.8479a.44574.44574,0,0,0-.444-.44555h0Z"/><rect class="cls-11" x="11.83463" y="65.10259" width="6.15087" height="6.15052" rx="0.99644" transform="translate(83.09069 53.28047) rotate(90.01065)"/><path d="M16.42821,72.034H13.39175a2.34108,2.34108,0,0,1-2.33914-2.33762h0l.00152-3.038a2.33978,2.33978,0,0,1,2.33762-2.33762h3.03646A2.34238,2.34238,0,0,1,18.76736,66.66l-.00153,3.03646A2.33977,2.33977,0,0,1,16.42821,72.034Zm-3.81312-2.33762a.77656.77656,0,0,0,.77666.77514h3.03646a.77623.77623,0,0,0,.77514-.77514L17.20488,66.66a.77689.77689,0,0,0-.77667-.77667H13.39175a.77624.77624,0,0,0-.77514.77514Z"/><rect class="cls-11" x="11.83463" y="73.60428" width="6.15087" height="6.15052" rx="0.99644" transform="translate(91.59238 61.78374) rotate(90.01065)"/><path d="M16.42821,80.53614H13.39175a2.34107,2.34107,0,0,1-2.33914-2.33761h0l.00152-3.038a2.33977,2.33977,0,0,1,2.33762-2.33762h3.03646a2.34238,2.34238,0,0,1,2.33915,2.33914l-.00153,3.03647A2.33976,2.33976,0,0,1,16.42821,80.53614Zm-3.81312-2.33761a.77655.77655,0,0,0,.77666.77513h3.03646a.77623.77623,0,0,0,.77514-.77513l.00153-3.03647a.77689.77689,0,0,0-.77667-.77666H13.39175a.77624.77624,0,0,0-.77514.77514Z"/><rect class="cls-11" x="11.83463" y="82.10597" width="6.15087" height="6.15052" rx="0.99644" transform="translate(100.09407 70.28701) rotate(90.01065)"/><path d="M16.42821,89.03824H13.39175a2.34238,2.34238,0,0,1-2.33914-2.33914h0l.00152-3.03647A2.33978,2.33978,0,0,1,13.39175,81.325h3.03646a2.34108,2.34108,0,0,1,2.33915,2.33762l-.00153,3.038A2.33977,2.33977,0,0,1,16.42821,89.03824ZM12.61509,86.6991a.77688.77688,0,0,0,.77666.77666h3.03646a.77623.77623,0,0,0,.77514-.77514l.00153-3.038a.77656.77656,0,0,0-.77667-.77513H13.39175a.77623.77623,0,0,0-.77514.77513Z"/><rect class="cls-11" x="20.42849" y="65.10259" width="6.15087" height="6.15052" rx="0.99644" transform="translate(91.68615 44.68661) rotate(90.01065)"/><path d="M25.02186,72.034H21.9854a2.33651,2.33651,0,0,1-2.33762-2.33915V66.65844a2.33978,2.33978,0,0,1,2.33762-2.33762h3.038A2.34108,2.34108,0,0,1,27.361,66.66l-.00153,3.03646A2.33978,2.33978,0,0,1,25.02186,72.034ZM21.9854,65.8833a.77624.77624,0,0,0-.77514.77514V69.698a.77364.77364,0,0,0,.77514.77361h3.03646a.77624.77624,0,0,0,.77514-.77514L25.79853,66.66a.77657.77657,0,0,0-.77514-.77667ZM20.429,69.69643h0Z"/><rect class="cls-11" x="20.42849" y="73.60428" width="6.15087" height="6.15052" rx="0.99644" transform="translate(100.18784 53.18988) rotate(90.01065)"/><path d="M25.02186,80.53614H21.9854A2.3365,2.3365,0,0,1,19.64778,78.197V75.16054a2.33977,2.33977,0,0,1,2.33762-2.33762h3.038A2.34108,2.34108,0,0,1,27.361,75.16206l-.00153,3.03647A2.33977,2.33977,0,0,1,25.02186,80.53614ZM21.9854,74.3854a.77624.77624,0,0,0-.77514.77514v3.03951a.77363.77363,0,0,0,.77514.77361h3.03646a.77623.77623,0,0,0,.77514-.77513l.00153-3.03647a.77657.77657,0,0,0-.77514-.77666ZM20.429,78.19853h0Z"/><rect class="cls-11" x="20.42849" y="82.10597" width="6.15087" height="6.15052" rx="0.99644" transform="translate(108.68953 61.69315) rotate(90.01065)"/><path d="M25.02186,89.03824H21.9854a2.33652,2.33652,0,0,1-2.33762-2.34067V83.66263A2.33978,2.33978,0,0,1,21.9854,81.325h3.038A2.33978,2.33978,0,0,1,27.361,83.66263l-.00153,3.038A2.33978,2.33978,0,0,1,25.02186,89.03824ZM21.9854,82.8875a.77623.77623,0,0,0-.77514.77513v3.038a.77363.77363,0,0,0,.77514.77514h3.03646a.77624.77624,0,0,0,.77514-.77514l.00153-3.038a.77623.77623,0,0,0-.77514-.77513ZM20.429,86.6991h0Z"/><rect class="cls-11" x="29.05481" y="65.10259" width="6.15087" height="6.15052" rx="0.99644" transform="translate(100.31407 36.06029) rotate(90.01065)"/><path d="M33.64755,72.034H30.61109a2.33978,2.33978,0,0,1-2.33762-2.33762v-3.038a2.34108,2.34108,0,0,1,2.33915-2.33762h3.03646A2.34108,2.34108,0,0,1,35.9867,66.66v3.03646A2.34108,2.34108,0,0,1,33.64755,72.034ZM30.61262,65.8833a.77657.77657,0,0,0-.77667.77514v3.038a.77624.77624,0,0,0,.77514.77514h3.03646a.77657.77657,0,0,0,.77667-.77514V66.66a.77657.77657,0,0,0-.77514-.77667Z"/><rect class="cls-11" x="29.05481" y="73.60428" width="6.15087" height="6.15052" rx="0.99644" transform="translate(108.81576 44.56356) rotate(90.01065)"/><path d="M33.64755,80.53614H30.61109a2.33977,2.33977,0,0,1-2.33762-2.33761v-3.038a2.34107,2.34107,0,0,1,2.33915-2.33762h3.03646a2.34108,2.34108,0,0,1,2.33762,2.33914v3.03647A2.34107,2.34107,0,0,1,33.64755,80.53614ZM30.61262,74.3854a.77657.77657,0,0,0-.77667.77514v3.038a.77623.77623,0,0,0,.77514.77513h3.03646a.77656.77656,0,0,0,.77667-.77513V75.16206a.77657.77657,0,0,0-.77514-.77666Z"/><path d="M40.77027,70.18928A.78079.78079,0,0,1,39.989,69.408V66.94835a.78124.78124,0,0,1,1.56248,0V69.408A.78079.78079,0,0,1,40.77027,70.18928Z"/><path d="M42.00164,68.95944H39.54043a.78124.78124,0,1,1,0-1.56248h2.46121a.78124.78124,0,1,1,0,1.56248Z"/><path class="cls-4" d="M47.99553,22.65a.44109.44109,0,0,1-.02.16c-.09.7-.16,1.42-.19,2.14a3.51033,3.51033,0,0,0-.43.13.61881.61881,0,0,0-.19.07,7.408,7.408,0,0,0-3.77,3.33c-1.29,2.36-.87,4.97-.25,6.99.24.78.52,1.48.74,2.03.31.83.2.34,1.45,2.81l-.61.61-5.08-5.08-4.58,4.59a29.93,29.93,0,0,1,.48-3.13,15.03785,15.03785,0,0,1,.84-3.04c.63-1.46,1.02-1.65,3.37-5.03a14.93791,14.93791,0,0,0,2.07-4.18,2.54492,2.54492,0,0,0,.04-1.84c-.4-.84-1.18005-.68-1.73-1.41-.89-1.17-.13-3.19.35-4.48a11.02446,11.02446,0,0,1,1.31-2.47,2.31832,2.31832,0,0,0,.09-1.74A2.82123,2.82123,0,0,0,38.555,11.80057L38.50554,11.04a4.69628,4.69628,0,0,1,3.94331-.81348,3.64079,3.64079,0,0,1,1.6367,1.1435c2.61,3.11-.19,5.69-1.27,8.56,1.49-.76,2.96-1.43,4.3-.01A3.03888,3.03888,0,0,1,47.99553,22.65Z"/><path class="cls-12" d="M39.54565,35.99615l-2.93747,2.93747L30.48327,14.79326c-.01564-.01564-.01564-.01564-.01564-.03118a.98092.98092,0,0,1,.67186-1.23442,1.00406,1.00406,0,0,1,1.25.67185v.04692Z"/><rect class="cls-11" x="37.69549" y="73.60428" width="6.15087" height="6.15052" rx="0.99644" transform="translate(117.45805 35.92288) rotate(90.01065)"/><path d="M42.2885,80.53614H39.252a2.33977,2.33977,0,0,1-2.33762-2.33761v-3.038a2.34107,2.34107,0,0,1,2.33915-2.33762H42.29a2.34108,2.34108,0,0,1,2.33762,2.33914v3.03647A2.34107,2.34107,0,0,1,42.2885,80.53614ZM39.25357,74.3854a.77657.77657,0,0,0-.77667.77514v3.038a.77623.77623,0,0,0,.77514.77513H42.2885a.77656.77656,0,0,0,.77667-.77513V75.16206A.77657.77657,0,0,0,42.29,74.3854Z"/><rect class="cls-11" x="37.69549" y="82.10597" width="6.15087" height="6.15052" rx="0.99644" transform="translate(125.95974 44.42615) rotate(90.01065)"/><path d="M42.2885,89.03824H39.252a2.34108,2.34108,0,0,1-2.33762-2.33914V83.66263A2.34108,2.34108,0,0,1,39.25357,81.325H42.29a2.33978,2.33978,0,0,1,2.33762,2.33762v3.038A2.34108,2.34108,0,0,1,42.2885,89.03824ZM39.25357,82.8875a.77656.77656,0,0,0-.77667.77513V86.6991a.77657.77657,0,0,0,.77514.77666H42.2885a.77657.77657,0,0,0,.77667-.77514v-3.038A.77623.77623,0,0,0,42.29,82.8875Z"/><path d="M39.90053,86.83642a.78124.78124,0,0,1-.55236-1.3336l1.741-1.741a.78116.78116,0,0,1,1.10472,1.10473l-1.741,1.741A.77868.77868,0,0,1,39.90053,86.83642Z"/><path d="M41.64154,86.83642a.77868.77868,0,0,1-.55236-.22888l-1.741-1.741a.78116.78116,0,0,1,1.10472-1.10473l1.741,1.741a.78124.78124,0,0,1-.55236,1.3336Z"/><rect class="cls-11" x="37.69549" y="90.60766" width="6.15087" height="6.15052" rx="0.99644" transform="translate(134.46143 52.92942) rotate(90.01065)"/><path d="M42.2885,97.54034H39.252a2.34108,2.34108,0,0,1-2.33762-2.33915v-3.038a2.34108,2.34108,0,0,1,2.33915-2.33762l3.03646.00153a2.33978,2.33978,0,0,1,2.33762,2.33762v3.03646A2.34239,2.34239,0,0,1,42.2885,97.54034Zm-3.03493-6.15227a.77656.77656,0,0,0-.77667.77513v3.038a.77656.77656,0,0,0,.77514.77666H42.2885a.77688.77688,0,0,0,.77667-.77666V92.16473a.77624.77624,0,0,0-.77514-.77514Z"/><path d="M41.99859,93.50291H39.53738a.78124.78124,0,0,1,0-1.56248h2.46121a.78124.78124,0,0,1,0,1.56248Z"/><path d="M41.99859,95.42244H39.53738a.78124.78124,0,0,1,0-1.56248h2.46121a.78124.78124,0,1,1,0,1.56248Z"/><path d="M42.00164,77.46153H39.54043a.78124.78124,0,1,1,0-1.56248h2.46121a.78124.78124,0,0,1,0,1.56248Z"/><rect class="cls-11" x="29.05481" y="82.10597" width="6.15087" height="6.15052" rx="0.99644" transform="translate(117.31745 53.06683) rotate(90.01065)"/><path d="M33.64755,89.03824H30.61109a2.34108,2.34108,0,0,1-2.33762-2.33914V83.66263A2.34108,2.34108,0,0,1,30.61262,81.325h3.03646a2.33978,2.33978,0,0,1,2.33762,2.33762v3.038A2.34108,2.34108,0,0,1,33.64755,89.03824ZM30.61262,82.8875a.77656.77656,0,0,0-.77667.77513V86.6991a.77657.77657,0,0,0,.77514.77666h3.03646a.77657.77657,0,0,0,.77667-.77514v-3.038a.77623.77623,0,0,0-.77514-.77513Z"/><path class="cls-11" d="M13.06044,90.60744H33.97961a1.22586,1.22586,0,0,1,1.22586,1.22586v3.69922a1.22579,1.22579,0,0,1-1.22579,1.22579H13.06056a1.22579,1.22579,0,0,1-1.22579-1.22579V91.83311A1.22566,1.22566,0,0,1,13.06044,90.60744Z"/><path d="M33.97867,97.53881h-20.918a2.00928,2.00928,0,0,1-2.008-2.00651l.00152-3.70021a2.009,2.009,0,0,1,2.00651-2.00651l20.91955.00153a2.009,2.009,0,0,1,2.00651,2.00651V95.5323A2.00929,2.00929,0,0,1,33.97867,97.53881Zm-20.918-6.15074a.44543.44543,0,0,0-.444.444l-.00152,3.70021a.44576.44576,0,0,0,.44555.444h20.918a.44576.44576,0,0,0,.44555-.444V91.83362a.44543.44543,0,0,0-.444-.444h0Z"/><path d="M91.37311,32.40247V32.2774a.83714.83714,0,0,0-.07807-.17181.05734.05734,0,0,0-.01568-.04694.71309.71309,0,0,0-.23432-.24993.0153.0153,0,0,0-.01562-.01563.04829.04829,0,0,1-.03125-.01569A1.01572,1.01572,0,0,0,90.67,31.668h-.04681L85.10754,31.59c.1875-.46875.39063-.9375.56256-1.375a11.78645,11.78645,0,0,0,1.01557-4.48432,8.70458,8.70458,0,0,0-2.40619-5.99988A13.98619,13.98619,0,0,1,86.43573,18.012q.328-.21084.70312-.42181a16.92752,16.92752,0,0,0,1.57807-1.01563,3.11015,3.11015,0,0,0,1.56244-3.26562,2.12756,2.12756,0,0,0-1.01557-1.45313c1.14063-.703,2.40619-1.703,2.0625-3.78119a2.791,2.791,0,0,0-2.0625-2.34368A2.95594,2.95594,0,0,0,88.9826,2.731a2.84449,2.84449,0,0,0-2.53125-1.0625A2.84359,2.84359,0,0,0,84.63885.32465,2.94,2.94,0,0,0,82.342.59033,2.87446,2.87446,0,0,0,79.60767.29346a2.92211,2.92211,0,0,0-1.70313,2.48431,2.79821,2.79821,0,0,0-2.95312,1.01569C73.639,5.434,74.23273,6.88708,74.9046,8.09027c-.15631.01563-.32812.04681-.48437.07806A8.36961,8.36961,0,0,0,67.98285.27783a11.82742,11.82742,0,0,0-8.53119,1.39063,19.78392,19.78392,0,0,0-6.31238,5.703c-.28125.375-.54693.76562-.81256,1.17187-.01562.03132-.09375.14069-.10937.17188-.26557.40625-.53119.84375-.78125,1.28125-.26557.45319-.51563.90625-.71875,1.32812a3.74133,3.74133,0,0,0-.82807.04682,4.27014,4.27014,0,0,0-1.6875-4.53113,4.25641,4.25641,0,0,0-4.23431-.125,4.54623,4.54623,0,0,0-5.57807-.39062,3.79865,3.79865,0,0,0-1.45306-1,4.50381,4.50381,0,0,0-4.37506.78125,4.30347,4.30347,0,0,0-3.65613-.48438H28.8739a4.34122,4.34122,0,0,0-2.90619,2.40625,4.53093,4.53093,0,0,0-4.125,1.68744,4.01765,4.01765,0,0,0-.71869,1.93744,4.257,4.257,0,0,0-.89062-.15619,4.00162,4.00162,0,0,0-2.35938.625,4.1522,4.1522,0,0,0-2.12494,2.87494,4.26551,4.26551,0,0,0-3.375,2.53119,3.8883,3.8883,0,0,0,.04694,3.01562,4.48265,4.48265,0,0,0,1.15619,1.64063,4.10207,4.10207,0,0,0-2.46875,4.34369c.40631,3.42181,2.96875,4.10931,5.23431,4.71869.04688,0,.07819.01568.10938.01568a3.007,3.007,0,0,0-1.42182,2.85925c.09375,2.375,1.90619,3.34369,3.48432,3.93744.90625.34375,1.875.59375,2.81244.85938.4375.10937.875.23443,1.26562.3125a.644.644,0,0,0,.23438.10937c.375.10944.89062.26563,1.48437.46875l-.875.89063a.73266.73266,0,0,0-.23437.54681v4.39514h-11.356a3.24659,3.24659,0,0,0-3.2348,3.25013V96.76514A3.23842,3.23842,0,0,0,11.84607,100H43.84491c.0155,0,.02985-.00433.04529-.00458H76.82642a.67623.67623,0,0,0,.29687-.06256.69189.69189,0,0,1,.10938-.0625.87688.87688,0,0,0,.12506-.07806l7.42175-6.875,6.078-2.078a.77454.77454,0,0,0,.53131-.73443V32.44928C91.38879,32.43372,91.37311,32.41809,91.37311,32.40247ZM74.20148,10.434a1.31006,1.31006,0,0,1,.03125-.15631,1.56916,1.56916,0,0,1,.23431-.35932c.31256-.34368.59375-.375,1.64063.125a.76012.76012,0,0,0,.87506-.14062.77039.77039,0,0,0,.1875-.85938,11.35187,11.35187,0,0,0-.67194-1.29687C75.764,6.44965,75.4046,5.7309,76.17023,4.76215c.53119-.65619,1.29687-.6875,2.28112-.07807a.80394.80394,0,0,0,.92194-.07812.76781.76781,0,0,0,.20313-.89063A1.5194,1.5194,0,0,1,80.217,1.731a1.4451,1.4451,0,0,1,1.5625.40625.77858.77858,0,0,0,1.07812,0,1.41653,1.41653,0,0,1,1.39063-.29688,1.33136,1.33136,0,0,1,1,.92182.77651.77651,0,0,0,.95306.51562,1.48731,1.48731,0,0,1,1.54688.40625,1.50375,1.50375,0,0,1-.40625,2.03125.81058.81058,0,0,0-.25.89063.75081.75081,0,0,0,.76562.51562c1.14057-.03125,1.79688.35931,1.93744,1.20306.20319,1.23438-.46869,1.6875-1.76556,2.45307a12.03993,12.03993,0,0,0-1.20307.76575.79059.79059,0,0,0,.42182,1.40612c1.125.07813,1.39062.20313,1.5.70319.125.51562,0,.96869-.95307,1.65619a15.66574,15.66574,0,0,1-1.46875.93744c-.23443.15631-.48437.29687-.73443.45318a17.02864,17.02864,0,0,0-2.46863,1.90619.65981.65981,0,0,0-.12506-.09375,3.05725,3.05725,0,0,0-.32813-.24994c-.04681-.03131-.07812-.06256-.12493-.09375-.10938-.07818-.20313-.14068-.23444-.15631a9.27686,9.27686,0,0,0-3.95313-1.28125c-.15618-.0155-.31237-.0155-.48431-.0155a3.05053,3.05053,0,0,0-.35937.03113,2.9993,2.9993,0,0,0-.37494.01568c-.07813.01563-.15625,0-.23444.01563a16.23878,16.23878,0,0,0-1.17187-2.67188l-.39063-.70312a15.453,15.453,0,0,1-.85931-1.57807,2.79083,2.79083,0,0,1-.32819-1.1875A.432.432,0,0,0,74.20148,10.434Zm-.21875,3.74994.37494.67193a14.63946,14.63946,0,0,1,.98437,2.26551,11.21164,11.21164,0,0,0-1.59363.62506,10.114,10.114,0,0,0-1.32818.85931l1.12506-5.18744C73.68585,13.684,73.84216,13.9339,73.98273,14.1839ZM52.77985,10.77765c.25-.40613.48431-.81238.75-1.21869a.40882.40882,0,0,0,.07812-.14063c.26563-.375.53119-.76562.78125-1.10931A18.09981,18.09981,0,0,1,60.2016,3.04346,10.13339,10.13339,0,0,1,67.639,1.809a6.43345,6.43345,0,0,1,2.51556,1.1875,6.9558,6.9558,0,0,1,2.59375,6.70306v.01563L72.7171,9.887a.60664.60664,0,0,1-.04681.172c0,.06244-.03131.12488-.03131.20313v.0155l-.01563.01568L70.32654,20.91827a.51794.51794,0,0,0-.04694.09375A9.63533,9.63533,0,0,0,69.514,22.5119c-.01563.03131-.01563.06256-.03131.09375a13.50255,13.50255,0,0,0-.57807,1.84375c-.20312.96869-.42181,1.92188-.62494,2.89063a5.20866,5.20866,0,0,0-.56256-.875q-.09375-.14062-.23431-.32813l-.12506-.12506a3.25877,3.25877,0,0,0-.21875-.26556,1.78321,1.78321,0,0,1-.17188-.17188c-.09375-.09375-.17181-.17181-.28125-.26556a2.70956,2.70956,0,0,0-.21875-.18762,2.55484,2.55484,0,0,0-.3125-.26557,1.70941,1.70941,0,0,0-.26562-.20312c-.125-.07813-.23432-.17188-.37494-.24994-.09375-.06256-.20313-.12506-.31256-.1875-.14057-.07813-.26557-.15631-.42188-.23444a2.48947,2.48947,0,0,0-.35931-.15619,4.4932,4.4932,0,0,0-.48438-.20312,3.08815,3.08815,0,0,0-.40625-.12506c-.10943-.03125-.20312-.07807-.31256-.10938A11.2943,11.2943,0,0,0,64.3266,20.387a.781.781,0,0,0-.82806-.95306,10.82643,10.82643,0,0,0-6.23438,2.49994,8.93522,8.93522,0,0,0-1.25,1.28125,1.31576,1.31576,0,0,0-.07812-.26563c-.03125-.07812-.04682-.15631-.07807-.21875a3.10686,3.10686,0,0,0-.34381-.73443,3.00342,3.00342,0,0,0-2.81244-1.54682.41734.41734,0,0,1,.07813-.09375c1.5-1.78119,3.21869-3.79681,1.59375-6.84369a4.45185,4.45185,0,0,0-.53131-.76562c-.04682-.06244-.10926-.125-.15619-.1875-.15625-.15619-.32819-.29688-.5-.43744l-.1875-.14063a3.58649,3.58649,0,0,0-.6875-.35937C52.46741,11.32458,52.6236,11.0589,52.77985,10.77765ZM60.061,26.68372a3.58429,3.58429,0,0,1,.6875.14068A8.59476,8.59476,0,0,1,64.74847,29.215a8.39257,8.39257,0,0,1-8.34368-2c-.10938-.09375-.1875-.1875-.29688-.29688.07813-.01568.14069-.03131.21875-.04681A8.22019,8.22019,0,0,1,60.061,26.68372Zm-3.51557-1.45307a8.23383,8.23383,0,0,1,1.73432-2.10931,8.68564,8.68564,0,0,1,4.20306-1.96875,8.805,8.805,0,0,1-1.1875,2.35937v.01563A8.39557,8.39557,0,0,1,59.936,25.0744a.05476.05476,0,0,1-.03132.01569A9.38693,9.38693,0,0,0,56.54547,25.23065Zm3.15613,5.59369a11.56362,11.56362,0,0,0,1.5.23444,3.83321,3.83321,0,0,0,.42194.03112c.1875.01569.39062.03132.59375.03132.21868,0,.43743-.01563.65618-.03132h.21875a12.18,12.18,0,0,0,1.48444-.23431c.10925-.03125.203-.04687.29688-.07806a14.3555,14.3555,0,0,0,1.53118-.46881.79546.79546,0,0,0,.46869-.53119.76571.76571,0,0,0-.14062-.6875,11.648,11.648,0,0,0-1.18744-1.28125c-.125-.12506-.26569-.21881-.40625-.34381a9.394,9.394,0,0,0-.875-.68738,6.02526,6.02526,0,0,0-.53125-.32819,9.15582,9.15582,0,0,0-.85938-.46869c-.1875-.09375-.40625-.1875-.60937-.26574-.17188-.06244-.35938-.15619-.53119-.21863.20313-.23444.39063-.45319.56244-.6875.09375.01562.17187.01562.26562.03119a6.53336,6.53336,0,0,1,3.90619,2.54681,6.17809,6.17809,0,0,1,1.15625,3.15625c-.34375,1.71869-.64062,3.28119-.90619,4.76556-.15631.87494-.3125,1.73432-.43756,2.5625-.10937.53119-.1875,1.06244-.26556,1.59375L61.82666,35.293a.75541.75541,0,0,0-1.09375,0l-5.15619,5.14062L50.42053,35.293a.75533.75533,0,0,0-1.09375,0l-3.73431,3.70312c-.20313-.39062-.34381-.64062-.45313-.84375-.06256-.10937-.125-.20312-.15631-.26556a3.33662,3.33662,0,0,1-.32806-.70313,19.31743,19.31743,0,0,1-.70313-1.95312c-.8125-2.59369-.75006-4.67181.1875-6.37494A6.49371,6.49371,0,0,1,47.4986,25.887a1.4575,1.4575,0,0,1,.15631-.07824c.10943-.03119.25-.07807.39062-.10926a5.95167,5.95167,0,0,1,2.71875-.06256,8.97356,8.97356,0,0,1,3.31244,1.43744,2.31963,2.31963,0,0,1,.20313.14069.3431.3431,0,0,0,.06244.07806,8.1002,8.1002,0,0,0,1,1.07813A10.73145,10.73145,0,0,0,59.7016,30.82434ZM40.76434,7.12152A2.56156,2.56156,0,0,1,43.18628,8.184a.77355.77355,0,0,0,1.07806.17181,2.78584,2.78584,0,0,1,3.07807-.20312,2.89392,2.89392,0,0,1,.57812,3.9375.77415.77415,0,0,0,.04694.90625.78665.78665,0,0,0,.87494.24994,4.539,4.539,0,0,1,2.26556-.32813,2.34024,2.34024,0,0,1,1.89063,1.32819c1.0625,1.99988.15631,3.24994-1.42182,5.09369a17.41569,17.41569,0,0,0-1.39062,1.81244.78238.78238,0,0,0,.85931,1.17187c1.70319-.4375,2.51557-.53119,3.14063.5a2.58146,2.58146,0,0,1,.28125.64057c.01562.07818.01562.14068.03125.21875a2.37,2.37,0,0,1,.03119.46875c-.01557.07818-.01557.17193-.03119.26568a3.48345,3.48345,0,0,1-.14063.5c-.03119.07813-.0625.17188-.09375.26557-.03131.03131-.04687.07812-.07812.10943l-.09375-.04693c-.21875-.12506-.46875-.24994-.71875-.375-.07813-.03125-.15625-.06244-.25-.10938-.26557-.10937-.53125-.21875-.82813-.32806a1.22511,1.22511,0,0,1-.21869-.07819,12.007,12.007,0,0,0-1.1875-.29687h-.01562a7.65349,7.65349,0,0,0-1.20319-.09375c-.04681,0-.09369-.01563-.14056-.01563-.14063,0-.29688.01563-.45319.01563-.10937.01562-.21863.01562-.34369.03125H48.6861V23.965c.03131-.32807.06256-.64057.07812-.90619a.73529.73529,0,0,0,.04694-.29688h.01562V22.715c.01563-.17182.01563-.32813.01563-.5,0-.14057.01568-.28119.01568-.42176a2.91443,2.91443,0,0,0-.10943-.53131,2.23133,2.23133,0,0,0-.06256-.34369,3.06147,3.06147,0,0,0-.28119-.60937,2.17,2.17,0,0,0-.09375-.20319A3.53626,3.53626,0,0,0,47.733,19.387a3.095,3.095,0,0,0-3.28119-.95306c.04682-.07813.07813-.15625.12494-.23444,1.15631-2.14056,2.46875-4.59369.15631-7.32806a4.30026,4.30026,0,0,0-5.10931-1.23432,5.95594,5.95594,0,0,0-.07813-.92187l-.04693-.1875a4.81048,4.81048,0,0,0-.26557-.89056A2.64876,2.64876,0,0,1,40.76434,7.12152ZM24.03021,14.79327A3.43975,3.43975,0,0,1,22.6709,12.262a2.44178,2.44178,0,0,1,.43744-1.62494,3.00893,3.00893,0,0,1,3.1875-.96868.79425.79425,0,0,0,.93744-.56257A2.76473,2.76473,0,0,1,29.202,7.15271a.4839.4839,0,0,0,.12506-.03119,2.84349,2.84349,0,0,1,2.7655.57813.76439.76439,0,0,0,1.07813-.04694A3.032,3.032,0,0,1,36.3894,6.7934a2.28394,2.28394,0,0,1,1.20313,1.07806,3.31428,3.31428,0,0,1,.23431,2.90619.78718.78718,0,0,0,.25006.875.72585.72585,0,0,0,.53119.14068.64075.64075,0,0,0,.37506-.09375,5.98079,5.98079,0,0,1,1.35938-.65618,2.74517,2.74517,0,0,1,2.7655.39056,5.76221,5.76221,0,0,1,.43756.4375c1.53119,1.84369.875,3.32806-.34381,5.59369a21.75091,21.75091,0,0,0-1.06244,2.18744.769.769,0,0,0,.21875.85943.757.757,0,0,0,.875.10938c1.24994-.64069,2.04682-.92194,2.71869-.64069.01563.01563.03131.01563.04694.03131a2.70492,2.70492,0,0,1,.29687.15619c.09375.09375.20313.1875.3125.29688a2.24962,2.24962,0,0,1,.65619,2.07812c0,.03125-.01562.125-.01562.15619-.06244.54694-.125,1.09375-.15619,1.65625-.01563,0-.01563,0-.03131.01563-.06244.01562-.10938.04693-.125.04693a8.19447,8.19447,0,0,0-4.17182,3.68744c-1.14056,2.09363-1.24994,4.578-.3125,7.57794.23444.79688.53131,1.51569.74994,2.09381a2.49391,2.49391,0,0,0,.12506.28119v.03131a4.87788,4.87788,0,0,0,.29688.56244L40.24878,35.293a.7171.7171,0,0,0-.14508-.10022L33.165,14.10321a.701.701,0,0,0-.02594-.12512,1.78266,1.78266,0,0,0-2.19873-1.20545,1.71886,1.71886,0,0,0-1.06507.8255,1.79441,1.79441,0,0,0-.15716,1.384h.00152c.00611.02136.01374.0412.02137.06256l6.0014,23.64911-1.08728,1.08349c-.0625-.07806-.10937-.15619-.17187-.23431-.09375-.14063-.1875-.26557-.28125-.40625-.17194-.21875-.32813-.42188-.46882-.625-.09375-.10938-.17181-.21869-.24993-.32807-.15619-.1875-.3125-.375-.45307-.54693-.06256-.07813-.14068-.15619-.20312-.23432-.172-.1875-.31256-.35943-.46888-.5-.03118-.03131-.06243-.07812-.09375-.10937-.78118-.76563-1.578-1.40631-1.93743-1.70319-.12494-.10925-.20313-.15619-.21863-.17181a23.69786,23.69786,0,0,0-2.375-1.5625,1.31614,1.31614,0,0,0-.21881-.14056c-.43744-.26569-.90625-.51563-1.35932-.78125-.82818-.46882-1.68756-.95319-2.45312-1.48438-1.60932-1.10937-2.14063-2.03119-1.89063-3.26562.23438-1.24994,1.07813-1.51557,2.96875-1.68738a.784.784,0,0,0,.67182-.57825.74939.74939,0,0,0-.28119-.82806A18.52163,18.52163,0,0,0,23.124,23.32446c-2.26562-1.26562-3.64062-2.15625-3.31244-4.53125.29688-2.14056,2.15625-2.59369,3.68744-2.59369h.06256a.78384.78384,0,0,0,.46869-1.40625ZM38.6535,35.78412l-1.62506,1.62506L31.23938,14.60065a.61847.61847,0,0,0-.029-.09c-.00458-.05341.02289-.11749.15106-.23346a.255.255,0,0,1,.25787.10071.943.943,0,0,0,.02893.11291Zm-15.342,2.07135a1.34351,1.34351,0,0,0-.23431-.07807c-.43756-.12506-.89063-.25006-1.34381-.375-.89063-.25006-1.82807-.5-2.67176-.8125-1.73443-.64062-2.42193-1.35937-2.46875-2.54687-.0625-1.12494.54682-1.54681,2.29676-2.17188a.778.778,0,0,0,.03131-1.45306,15.89282,15.89282,0,0,0-2.17188-.6875C14.38965,29.09,12.93658,28.59,12.671,26.34c-.1875-1.60938.76562-2.68744,2.82806-3.18744a.81757.81757,0,0,0,.59375-.70313.7883.7883,0,0,0-.48431-.78125,3.19967,3.19967,0,0,1-1.75-1.71875,2.47391,2.47391,0,0,1-.04694-1.82812A2.80286,2.80286,0,0,1,16.46777,16.512a.78036.78036,0,0,0,.78125-.76568A2.58674,2.58674,0,0,1,18.671,13.46521a2.47837,2.47837,0,0,1,1.49988-.40625,2.52055,2.52055,0,0,1,1.09375.28119c.01568.0625.04693.12506.0625.1875l.09375.23443a4.48792,4.48792,0,0,0,.5,1.03119A4.32471,4.32471,0,0,0,18.249,18.57452c-.46869,3.56244,1.96875,4.92176,4.10932,6.10926a.8447.8447,0,0,0,.20318.10943,3.164,3.164,0,0,0-2.28131,2.578c-.46869,2.42193,1.09381,3.875,2.53125,4.85937a29.014,29.014,0,0,0,2.57813,1.5625c.43744.24994.89062.51556,1.34369.74994a.67448.67448,0,0,0,.15625.14069c.17193.09375.39062.21868.60937.34368a1.30047,1.30047,0,0,1,.1875.125c.20313.12494.4375.28125.6875.43744a.32662.32662,0,0,0,.09375.06256l-2.9375,2.95307A19.55328,19.55328,0,0,0,23.31146,37.85547ZM45.51721,96.76514a1.67251,1.67251,0,0,1-1.62707,1.66778H29.38953l-.00318.00458H11.84607a1.67491,1.67491,0,0,1-1.67236-1.67236V48.8913a1.68213,1.68213,0,0,1,1.67236-1.68763H43.84491a1.68212,1.68212,0,0,1,1.6723,1.68763Zm30.528,1.66778H46.60242a3.20174,3.20174,0,0,0,.47729-1.66778V48.8913a3.24663,3.24663,0,0,0-3.2348-3.25013H24.76154l.003-.00457V41.57422l4.625-4.625,4.60931,4.59369c.01569.03131.0625.04693.07813.06256a.54854.54854,0,0,0,.125.07812.87906.87906,0,0,0,.1875.06244c.03118,0,.04681.03131.07812.03131h.07813a.88308.88308,0,0,0,.28118-.04693.01533.01533,0,0,1,.01569-.01557c.03125,0,.04688-.03125.07806-.04687a.93616.93616,0,0,0,.12507-.0625.04841.04841,0,0,0,.01562-.03125c.01563-.01563.03119-.01563.03119-.03131l2.05463-2.04761.014-.0094,1.3703-1.3703,1.17035-1.16638,4.53125,4.51562a.55455.55455,0,0,0,.24994.17182.78087.78087,0,0,0,.59375,0,.55555.55555,0,0,0,.25006-.17182l4.54682-4.51562c1.65619,1.60943,3.32806,3.23437,4.98431,4.84375a1.13513,1.13513,0,0,0,.57807.21875,1.11,1.11,0,0,0,.71881-.15625,1.65888,1.65888,0,0,0,.17181-.14063c1.64063-1.59375,3.29681-3.17187,4.95306-4.76562l4.28119,4.28131.20313.21863a.75646.75646,0,0,0,.56256.25006.69148.69148,0,0,0,.5625-.23438l.28119-.28125,4.24994-4.23437,4.62494,4.625Zm1.15625-57.9212L71.96716,35.293a.7554.7554,0,0,0-1.09381,0l-3.09363,3.07818c.01563-.07812.01563-.15631.03119-.23443.37506-2.21869.8125-4.6405,1.37494-7.40613.39063-1.98437.81256-3.96869,1.25006-5.93738a9.58385,9.58385,0,0,1,1.29682-3.17193,5.3489,5.3489,0,0,1,.70312-.92182A7.42235,7.42235,0,0,1,74.48273,19.137a6.67279,6.67279,0,0,1,2.03119-.70312,5.9304,5.9304,0,0,1,1.73443-.14069,7.68452,7.68452,0,0,1,3.29682,1.07813,7.24012,7.24012,0,0,1,1.09375.90625A7.65043,7.65043,0,0,1,84.92,24.04321a8.95825,8.95825,0,0,1-.68744,5.578c-.67187,1.625-1.4375,3.46875-2.26562,5.39056q-.164.37509-.32806.75006c-.1875.45306-.39063.92181-.59375,1.3905l-1.375,1.1875C78.842,39.07428,78.0296,39.793,77.20142,40.51172ZM83.592,91.88611l-5.98431,5.54681V42.23041c1.03131-.90619,2.0625-1.79682,3.09368-2.71869l1.48438-1.29688h.01562L83.592,36.99615Zm.48437-57.32746h-.01562c-.03131.01569-.04681.03132-.07813.04688a.86621.86621,0,0,0-.125.07819l-.07812.07806a1.0808,1.0808,0,0,0,.0625-.15625c.21875-.48438.42187-.98438.625-1.46875l2.64062.04694Zm5.74994,54.98377-4.67181,1.59363V35.77734c1.5625-.71869,3.10931-1.42181,4.67181-2.12494Z"/></svg>